 <svg
            xmlns="http://www.w3.org/2000/svg"
            viewBox="0 0 24 24"
            width="24"
            height="24"
            className="fill-current text-white transition-colors duration-300 hover:text-purple-500"
          >
            <path d="M12 0C5.373 0 0 5.373 0 12c0 5.263 3.293 9.706 7.907 11.352.576.106.783-.249.783-.553v-2.3c-3.273.69-3.965-1.572-3.965-1.572-.537-1.363-1.309-1.73-1.309-1.73-1.071-.732.083-.717.083-.717 1.186.083 1.812 1.224 1.812 1.224 1.055 1.806 2.77 1.283 3.446.982.106-.764.413-1.283.75-1.577-2.665-.304-5.465-1.335-5.465-5.93 0-1.312.47-2.386 1.235-3.22-.124-.304-.537-1.532.118-2.133 0 0 1.007-.322 3.3 1.227.957-.266 1.98-.398 3.003-.402 1.023.004 2.046.136 3.003.402 2.293-1.55 3.3-1.227 3.3-1.227.655.601.243 1.829.118 2.133.765.834 1.235 1.908 1.235 3.22 0 4.608-2.804 5.624-5.466 5.93.422.364.796 1.086.796 2.187v3.241c0 .306.206.662.79.553C20.707 21.706 24 17.263 24 12c0-6.627-5.373-12-12-12z"/>
          </svg>