<?xml version="1.0" encoding="UTF-8" standalone="no"?>
<svg
   viewBox="0 0 24 24"
   width="24"
   height="24"
   className="fill-current text-white transition-colors duration-300 hover:text-purple-500"
   version="1.1"
   id="svg1"
   sodipodi:docname="github.svg"
   inkscape:version="1.3.2 (091e20e, 2023-11-25, custom)"
   xmlns:inkscape="http://www.inkscape.org/namespaces/inkscape"
   xmlns:sodipodi="http://sodipodi.sourceforge.net/DTD/sodipodi-0.dtd"
   xmlns="http://www.w3.org/2000/svg"
   xmlns:svg="http://www.w3.org/2000/svg">
  <defs
     id="defs1" />
  <sodipodi:namedview
     id="namedview1"
     pagecolor="#ffffff"
     bordercolor="#cccccc"
     borderopacity="1"
     inkscape:showpageshadow="0"
     inkscape:pageopacity="1"
     inkscape:pagecheckerboard="0"
     inkscape:deskcolor="#d1d1d1"
     inkscape:zoom="32.375"
     inkscape:cx="11.984556"
     inkscape:cy="12"
     inkscape:window-width="1920"
     inkscape:window-height="991"
     inkscape:window-x="-9"
     inkscape:window-y="-9"
     inkscape:window-maximized="1"
     inkscape:current-layer="svg1" />
  <path
     d="M12 0C5.373 0 0 5.373 0 12c0 5.263 3.293 9.706 7.907 11.352.576.106.783-.249.783-.553v-2.3c-3.273.69-3.965-1.572-3.965-1.572-.537-1.363-1.309-1.73-1.309-1.73-1.071-.732.083-.717.083-.717 1.186.083 1.812 1.224 1.812 1.224 1.055 1.806 2.77 1.283 3.446.982.106-.764.413-1.283.75-1.577-2.665-.304-5.465-1.335-5.465-5.93 0-1.312.47-2.386 1.235-3.22-.124-.304-.537-1.532.118-2.133 0 0 1.007-.322 3.3 1.227.957-.266 1.98-.398 3.003-.402 1.023.004 2.046.136 3.003.402 2.293-1.55 3.3-1.227 3.3-1.227.655.601.243 1.829.118 2.133.765.834 1.235 1.908 1.235 3.22 0 4.608-2.804 5.624-5.466 5.93.422.364.796 1.086.796 2.187v3.241c0 .306.206.662.79.553C20.707 21.706 24 17.263 24 12c0-6.627-5.373-12-12-12z"
     id="path1"
     style="fill:#ffffff;fill-opacity:1" />
</svg>
