 <svg
            xmlns="http://www.w3.org/2000/svg"
            viewBox="0 0 24 24"
            width="24"
            height="24"
            className="fill-current text-white transition-colors duration-300 hover:text-purple-500"
          >
            <path d="M22.225 0h-20.45C.996 0 0 .996 0 2.225v19.55C0 23.004.996 24 2.225 24h20.55C23.004 24 24 23.004 24 22.225v-19.55C24 .996 23.004 0 22.225 0zM7.5 20.452H4.25V9h3.25v11.452zm-1.625-13.048c-1.038 0-1.875-.842-1.875-1.875S4.837 3.53 5.875 3.53c1.035 0 1.875.842 1.875 1.875s-.84 1.875-1.875 1.875zm16.375 13.048h-3.25v-5.741c0-1.36-.025-3.113-1.895-3.113-1.895 0-2.183 1.481-2.183 3.007v5.847h-3.25V9h3.12v1.551h.045c.435-.826 1.495-1.693 3.077-1.693 3.292 0 3.897 2.174 3.897 5.012v6.582z"/>
          </svg>